<svg width="18" height="18" viewBox="0 0 18 18" fill="none" xmlns="http://www.w3.org/2000/svg">
<path fill-rule="evenodd" clip-rule="evenodd" d="M8.25 2.29179C7.18033 2.41138 6.15088 2.78557 5.2499 3.38758C4.13987 4.12928 3.27471 5.18349 2.76382 6.41689C2.25293 7.65029 2.11925 9.00749 2.3797 10.3169C2.5911 11.3796 3.05444 12.3722 3.72625 13.2131L5.35136 11.588C4.98881 11.0768 4.73603 10.4928 4.61268 9.87269C4.44008 9.00496 4.52866 8.10554 4.86723 7.28815C5.20581 6.47077 5.77916 5.77214 6.51478 5.28061C7.04049 4.92934 7.63221 4.69511 8.25 4.59004V2.29179ZM9.75 2.29179V4.59004C10.2234 4.67055 10.6823 4.82703 11.1087 5.05492C11.7575 5.4017 12.3107 5.90312 12.7194 6.51478C13.0698 7.03913 13.3046 7.63061 13.41 8.25H15.7082C15.5883 7.17714 15.2127 6.14823 14.6124 5.2499C13.9957 4.32693 13.1609 3.5703 12.1819 3.04703C11.4245 2.6422 10.599 2.38671 9.75 2.29179ZM17.2158 8.25C17.2141 8.23045 17.2122 8.2109 17.2103 8.19136C17.0773 6.84117 16.6134 5.54462 15.8596 4.41655C15.1059 3.28847 14.0855 2.3637 12.889 1.72415C11.6925 1.0846 10.3567 0.75 9 0.75C7.36831 0.75 5.77325 1.23385 4.41655 2.14038C3.05984 3.0469 2.00242 4.33537 1.378 5.84286C0.753575 7.35035 0.590197 9.00915 0.908525 10.6095C1.22685 12.2098 2.01259 13.6798 3.16637 14.8336C4.12572 15.793 5.30686 16.5009 6.60516 16.8948C7.90346 17.2886 9.27885 17.3562 10.6095 17.0915C11.9402 16.8268 13.185 16.238 14.2337 15.3773C14.2489 15.3649 14.2641 15.3524 14.2791 15.3398L14.3033 15.364L14.8291 14.8381C14.8306 14.8366 14.8321 14.8351 14.8336 14.8336C15.5979 14.0694 16.2064 13.1605 16.622 12.1571C17.0114 11.2171 17.2224 10.2158 17.2475 9.20436C17.2492 9.13435 17.2501 9.0643 17.25 8.99421C17.2498 8.74629 17.2385 8.49797 17.2158 8.25ZM14.2737 13.2131C14.6681 12.7195 14.9926 12.1711 15.2362 11.5831C15.4797 10.9951 15.638 10.3779 15.7082 9.75H13.41C13.354 10.0788 13.2613 10.4014 13.1328 10.7118C13.0042 11.0222 12.8416 11.316 12.6486 11.588L14.2737 13.2131ZM11.588 12.6486L13.2131 14.2737C12.3696 14.9476 11.3765 15.4095 10.3169 15.6203C9.22815 15.8369 8.10283 15.7816 7.04058 15.4593C6.21877 15.2101 5.45434 14.8069 4.78692 14.2737L6.41203 12.6486C6.80367 12.9264 7.23886 13.1403 7.70148 13.2807C8.40544 13.4942 9.1512 13.5308 9.8727 13.3873C10.4912 13.2643 11.0755 13.0121 11.588 12.6486ZM11.101 11.1039C11.1015 11.1034 11.102 11.1029 11.1024 11.1024C11.1198 11.0851 11.1369 11.0675 11.1539 11.0497C11.4052 10.7856 11.6066 10.4766 11.747 10.1378C11.8967 9.77622 11.9733 9.38951 11.9733 9C11.9733 8.99911 11.9733 8.99822 11.9733 8.99732C11.9732 8.90113 11.9684 8.80476 11.959 8.70857C11.911 8.22196 11.7438 7.75469 11.4722 7.34814C11.2005 6.94158 10.8328 6.6083 10.4016 6.3778C9.97037 6.14731 9.48896 6.02672 9 6.02672C8.41195 6.02672 7.83709 6.2011 7.34814 6.52781C6.85919 6.85452 6.47809 7.31888 6.25305 7.86218C6.02801 8.40547 5.96913 9.0033 6.08386 9.58006C6.19858 10.1568 6.48176 10.6866 6.89758 11.1024C7.24333 11.4482 7.669 11.7033 8.13691 11.8452C8.60481 11.9872 9.1005 12.0115 9.58006 11.9161C10.0596 11.8208 10.5083 11.6086 10.8862 11.2984C10.9611 11.2369 11.0328 11.172 11.101 11.1039Z" fill="#949BA9"/>
</svg>
