<svg width="263" height="162" viewBox="0 0 263 162" fill="none" xmlns="http://www.w3.org/2000/svg">
<g filter="url(#filter0_b_907_22735)">
<path d="M261 130C261 112.928 257.637 96.0235 251.104 80.2511C244.571 64.4788 234.996 50.1477 222.924 38.0761C210.852 26.0045 196.521 16.4288 180.749 9.89565C164.977 3.36253 148.072 -1.6005e-05 131 -1.52588e-05C113.928 -1.45126e-05 97.0235 3.36253 81.2512 9.89565C65.4788 16.4288 51.1477 26.0045 39.0761 38.0761C27.0045 50.1477 17.4288 64.4788 10.8957 80.2511C4.36257 96.0235 1.00002 112.928 1.00002 130H40C40 118.05 42.3538 106.216 46.927 95.1758C51.5002 84.1352 58.2032 74.1034 66.6533 65.6533C75.1034 57.2031 85.1352 50.5001 96.1758 45.927C107.216 41.3538 119.05 39 131 39C142.95 39 154.784 41.3538 165.824 45.9269C176.865 50.5001 186.897 57.2031 195.347 65.6533C203.797 74.1034 210.5 84.1352 215.073 95.1758C219.646 106.216 222 118.05 222 130H261Z" fill="url(#paint0_linear_907_22735)"/>
</g>
<g filter="url(#filter1_b_907_22735)">
<path d="M12 130C12 114.373 15.0781 98.8984 21.0584 84.4607C27.0387 70.0229 35.8042 56.9044 46.8543 45.8543C57.9045 34.8041 71.023 26.0386 85.4607 20.0583C99.8985 14.078 115.373 11 131 11C146.627 11 162.102 14.078 176.539 20.0583C190.977 26.0386 204.096 34.8041 215.146 45.8543C226.196 56.9045 234.961 70.0229 240.942 84.4607C246.922 98.8984 250 114.373 250 130H214.3C214.3 119.061 212.145 108.229 207.959 98.1225C203.773 88.016 197.637 78.8331 189.902 71.098C182.167 63.3629 172.984 57.227 162.878 53.0408C152.771 48.8546 141.939 46.7 131 46.7C120.061 46.7 109.229 48.8546 99.1225 53.0408C89.0161 57.227 79.8332 63.3629 72.0981 71.098C64.3629 78.8331 58.2271 88.016 54.0409 98.1225C49.8546 108.229 47.7 119.061 47.7 130H12Z" fill="white"/>
</g>
<path d="M16 130C16 114.898 18.9746 99.9438 24.7539 85.9914C30.5332 72.039 39.004 59.3615 49.6828 48.6827C60.3615 38.004 73.039 29.5331 86.9914 23.7539C100.944 17.9746 115.898 15 131 15C146.102 15 161.056 17.9746 175.009 23.7539C188.961 29.5332 201.639 38.004 212.317 48.6827C222.996 59.3615 231.467 72.039 237.246 85.9914C243.025 99.9439 246 114.898 246 130L131 130L16 130Z" fill="#F0F2F5"/>
<g filter="url(#filter2_di_907_22735)">
<path d="M24 130C24 115.817 26.7806 101.773 32.183 88.6702C37.5854 75.567 45.5038 63.6612 55.4861 53.6325C65.4684 43.6037 77.3191 35.6485 90.3616 30.221C103.404 24.7935 117.383 22 131.5 22C145.617 22 159.596 24.7935 172.639 30.221C185.681 35.6485 197.532 43.6037 207.514 53.6325C217.496 63.6612 225.415 75.567 230.817 88.6702C236.219 101.773 239 115.817 239 130L131.5 130L24 130Z" fill="white"/>
</g>
<defs>
<filter id="filter0_b_907_22735" x="-2.99998" y="-4" width="268" height="138" filterUnits="userSpaceOnUse" color-interpolation-filters="sRGB">
<feFlood flood-opacity="0" result="BackgroundImageFix"/>
<feGaussianBlur in="BackgroundImageFix" stdDeviation="2"/>
<feComposite in2="SourceAlpha" operator="in" result="effect1_backgroundBlur_907_22735"/>
<feBlend mode="normal" in="SourceGraphic" in2="effect1_backgroundBlur_907_22735" result="shape"/>
</filter>
<filter id="filter1_b_907_22735" x="8.00003" y="7" width="246" height="127" filterUnits="userSpaceOnUse" color-interpolation-filters="sRGB">
<feFlood flood-opacity="0" result="BackgroundImageFix"/>
<feGaussianBlur in="BackgroundImageFix" stdDeviation="2"/>
<feComposite in2="SourceAlpha" operator="in" result="effect1_backgroundBlur_907_22735"/>
<feBlend mode="normal" in="SourceGraphic" in2="effect1_backgroundBlur_907_22735" result="shape"/>
</filter>
<filter id="filter2_di_907_22735" x="3.8147e-05" y="6" width="263" height="156" filterUnits="userSpaceOnUse" color-interpolation-filters="sRGB">
<feFlood flood-opacity="0" result="BackgroundImageFix"/>
<feColorMatrix in="SourceAlpha" type="matrix" values="0 0 0 0 0 0 0 0 0 0 0 0 0 0 0 0 0 0 127 0" result="hardAlpha"/>
<feOffset dy="8"/>
<feGaussianBlur stdDeviation="12"/>
<feComposite in2="hardAlpha" operator="out"/>
<feColorMatrix type="matrix" values="0 0 0 0 0.913725 0 0 0 0 0.913725 0 0 0 0 0.913725 0 0 0 0.84 0"/>
<feBlend mode="normal" in2="BackgroundImageFix" result="effect1_dropShadow_907_22735"/>
<feBlend mode="normal" in="SourceGraphic" in2="effect1_dropShadow_907_22735" result="shape"/>
<feColorMatrix in="SourceAlpha" type="matrix" values="0 0 0 0 0 0 0 0 0 0 0 0 0 0 0 0 0 0 127 0" result="hardAlpha"/>
<feOffset dy="8"/>
<feGaussianBlur stdDeviation="16"/>
<feComposite in2="hardAlpha" operator="arithmetic" k2="-1" k3="1"/>
<feColorMatrix type="matrix" values="0 0 0 0 0.704167 0 0 0 0 0.744508 0 0 0 0 1 0 0 0 0.28 0"/>
<feBlend mode="normal" in2="shape" result="effect2_innerShadow_907_22735"/>
</filter>
<linearGradient id="paint0_linear_907_22735" x1="1.00002" y1="130" x2="261" y2="129.999" gradientUnits="userSpaceOnUse">
<stop stop-color="#EF1B0D"/>
<stop offset="0.326116" stop-color="#FBEE7D"/>
<stop offset="0.60673" stop-color="#FBEE7D"/>
<stop offset="0.953125" stop-color="#33E815"/>
</linearGradient>
</defs>
</svg>
