<svg width="22" height="20" viewBox="0 0 22 20" fill="none" xmlns="http://www.w3.org/2000/svg">
<path fill-rule="evenodd" clip-rule="evenodd" d="M19 1.9001C18.3925 1.9001 17.9 2.39258 17.9 3.0001V17.0001C17.9 17.6076 18.3925 18.1001 19 18.1001C19.6075 18.1001 20.1 17.6076 20.1 17.0001V3.0001C20.1 2.39258 19.6075 1.9001 19 1.9001ZM16.1 3.0001C16.1 1.39847 17.3984 0.100098 19 0.100098C20.6016 0.100098 21.9 1.39847 21.9 3.0001V17.0001C21.9 18.6017 20.6016 19.9001 19 19.9001C17.3984 19.9001 16.1 18.6017 16.1 17.0001V3.0001ZM11 5.9001C10.3925 5.9001 9.9 6.39258 9.9 7.0001L9.9 17.0001C9.9 17.6076 10.3925 18.1001 11 18.1001C11.6075 18.1001 12.1 17.6076 12.1 17.0001V7.0001C12.1 6.39258 11.6075 5.9001 11 5.9001ZM8.1 7.0001C8.1 5.39847 9.39837 4.1001 11 4.1001C12.6016 4.1001 13.9 5.39847 13.9 7.0001V17.0001C13.9 18.6017 12.6016 19.9001 11 19.9001C9.39837 19.9001 8.1 18.6017 8.1 17.0001L8.1 7.0001ZM3 9.9001C2.39249 9.9001 1.9 10.3926 1.9 11.0001L1.9 17.0001C1.9 17.6076 2.39249 18.1001 3 18.1001C3.60751 18.1001 4.1 17.6076 4.1 17.0001V11.0001C4.1 10.3926 3.60751 9.9001 3 9.9001ZM0.0999987 11.0001C0.0999988 9.39847 1.39837 8.1001 3 8.1001C4.60162 8.1001 5.9 9.39847 5.9 11.0001L5.9 17.0001C5.9 18.6017 4.60162 19.9001 3 19.9001C1.39837 19.9001 0.0999984 18.6017 0.0999985 17.0001L0.0999987 11.0001Z" fill="#949BA9"/>
</svg>
