<svg width="8" height="8" viewBox="0 0 8 8" fill="none" xmlns="http://www.w3.org/2000/svg">
<path fill-rule="evenodd" clip-rule="evenodd" d="M1.71135 1.28757C1.59419 1.17042 1.40424 1.17042 1.28709 1.28757C1.16993 1.40473 1.16993 1.59468 1.28709 1.71184L3.67507 4.09982L1.28731 6.48757C1.17015 6.60473 1.17015 6.79468 1.28731 6.91184C1.40447 7.029 1.59442 7.029 1.71157 6.91184L4.09933 4.52408L6.48709 6.91184C6.60424 7.029 6.79419 7.029 6.91135 6.91184C7.02851 6.79468 7.02851 6.60473 6.91135 6.48757L4.52359 4.09982L6.91157 1.71184C7.02873 1.59468 7.02873 1.40473 6.91157 1.28757C6.79442 1.17042 6.60447 1.17042 6.48731 1.28757L4.09933 3.67555L1.71135 1.28757Z" fill="#222222"/>
</svg>
