<svg width="16" height="16" viewBox="0 0 16 16" fill="none" xmlns="http://www.w3.org/2000/svg">
<path d="M0.5625 8C0.5625 3.89238 3.89238 0.5625 8 0.5625V0.5625C12.1076 0.5625 15.4375 3.89238 15.4375 8V8C15.4375 12.1076 12.1076 15.4375 8 15.4375V15.4375C3.89238 15.4375 0.5625 12.1076 0.5625 8V8Z" fill="#1273BF"/>
<path d="M7.09591 7.50256H3.73974L3.34229 8.77159H6.69847L7.09591 7.50256Z" fill="white"/>
<path d="M12.5278 6.62871C12.2419 7.63974 11.9467 8.65542 11.5493 9.62462C11.2123 10.4474 10.5243 10.9029 9.60158 10.9053C7.72826 10.9099 5.85727 10.9076 3.98395 10.9076C3.86773 10.7472 3.76082 10.5776 3.66553 10.4032C3.73758 10.1778 3.81428 9.93839 3.86773 9.7664L3.95141 9.50609H4.19312C5.79219 9.50376 7.39357 9.50376 8.99264 9.50376C9.64342 9.50376 9.64342 9.50376 9.84098 8.89017C10.0455 8.25333 10.2384 7.61417 10.4546 6.98431C10.5289 6.76583 10.4848 6.72865 10.2663 6.73097C8.56498 6.74027 4.84158 6.73794 4.84158 6.73794L5.28318 5.35503C5.28318 5.35503 9.57369 5.35038 11.6144 5.35736C11.877 5.35736 12.1048 5.45265 12.2744 5.6107C12.4395 5.7641 12.5464 5.97792 12.5673 6.22197C12.5789 6.3498 12.5673 6.48693 12.5278 6.62871Z" fill="white"/>
<path d="M4.83887 6.74521L4.8413 6.73792H4.83887V6.74521Z" fill="white"/>
</svg>
