<svg width="24" height="24" viewBox="0 0 24 24" fill="none" xmlns="http://www.w3.org/2000/svg">
<path fill-rule="evenodd" clip-rule="evenodd" d="M18 3.1001C19.6016 3.1001 20.9 4.39847 20.9 6.0001C20.9 7.60172 19.6016 8.9001 18 8.9001L10 8.9001C8.39838 8.9001 7.1 7.60172 7.1 6.0001C7.1 4.39847 8.39838 3.1001 10 3.1001L18 3.1001ZM19.1 6.0001C19.1 5.39258 18.6075 4.9001 18 4.9001L10 4.9001C9.39249 4.9001 8.9 5.39258 8.9 6.0001C8.9 6.60761 9.39249 7.1001 10 7.1001L18 7.1001C18.6075 7.1001 19.1 6.60761 19.1 6.0001Z" fill="#949BA9"/>
<path fill-rule="evenodd" clip-rule="evenodd" d="M18 11.1001C19.6016 11.1001 20.9 12.3985 20.9 14.0001C20.9 15.6017 19.6016 16.9001 18 16.9001L10 16.9001C8.39838 16.9001 7.1 15.6017 7.1 14.0001C7.1 12.3985 8.39838 11.1001 10 11.1001L18 11.1001ZM19.1 14.0001C19.1 13.3926 18.6075 12.9001 18 12.9001L10 12.9001C9.39249 12.9001 8.9 13.3926 8.9 14.0001C8.9 14.6076 9.39249 15.1001 10 15.1001L18 15.1001C18.6075 15.1001 19.1 14.6076 19.1 14.0001Z" fill="#949BA9"/>
<path fill-rule="evenodd" clip-rule="evenodd" d="M14 7.1001C15.6016 7.1001 16.9 8.39847 16.9 10.0001C16.9 11.6017 15.6016 12.9001 14 12.9001L6 12.9001C4.39838 12.9001 3.1 11.6017 3.1 10.0001C3.1 8.39847 4.39838 7.1001 6 7.1001L14 7.1001ZM15.1 10.0001C15.1 9.39258 14.6075 8.9001 14 8.9001L6 8.9001C5.39249 8.9001 4.9 9.39258 4.9 10.0001C4.9 10.6076 5.39249 11.1001 6 11.1001L14 11.1001C14.6075 11.1001 15.1 10.6076 15.1 10.0001Z" fill="#949BA9"/>
<path fill-rule="evenodd" clip-rule="evenodd" d="M15 15.1001C16.6016 15.1001 17.9 16.3985 17.9 18.0001C17.9 19.6017 16.6016 20.9001 15 20.9001L7 20.9001C5.39838 20.9001 4.1 19.6017 4.1 18.0001C4.1 16.3985 5.39838 15.1001 7 15.1001L15 15.1001ZM16.1 18.0001C16.1 17.3926 15.6075 16.9001 15 16.9001L7 16.9001C6.39249 16.9001 5.9 17.3926 5.9 18.0001C5.9 18.6076 6.39249 19.1001 7 19.1001L15 19.1001C15.6075 19.1001 16.1 18.6076 16.1 18.0001Z" fill="#949BA9"/>
</svg>
