<svg width="14" height="14" viewBox="0 0 14 14" fill="none" xmlns="http://www.w3.org/2000/svg">
<path fill-rule="evenodd" clip-rule="evenodd" d="M9.00006 0.349976L13.0001 0.349976C13.359 0.349976 13.65 0.64099 13.6501 0.999976L13.6501 4.99997C13.6501 5.35895 13.359 5.64997 13.0001 5.64997C12.6411 5.64997 12.3501 5.35896 12.3501 4.99997L12.3501 2.56921L6.12634 8.79292C5.8725 9.04677 5.46095 9.04677 5.2071 8.79292C4.95326 8.53908 4.95326 8.12753 5.2071 7.87369L11.4308 1.64998L9.00006 1.64998C8.64107 1.64998 8.35006 1.35896 8.35006 0.999976C8.35006 0.640991 8.64107 0.349976 9.00006 0.349976Z" fill="#949BA9"/>
<path fill-rule="evenodd" clip-rule="evenodd" d="M0.349976 5.00002C0.349976 3.16827 1.8349 1.68335 3.66664 1.68335H6.99998C7.35896 1.68335 7.64998 1.97436 7.64998 2.33335C7.64998 2.69233 7.35896 2.98335 6.99998 2.98335H3.66664C2.55287 2.98335 1.64998 3.88624 1.64998 5.00002V10.3333C1.64998 11.4471 2.55287 12.35 3.66664 12.35H8.99997C10.1137 12.35 11.0166 11.4471 11.0166 10.3333V7.00002C11.0166 6.64103 11.3077 6.35002 11.6666 6.35002C12.0256 6.35002 12.3166 6.64103 12.3166 7.00002V10.3333C12.3166 12.1651 10.8317 13.65 8.99997 13.65H3.66664C1.8349 13.65 0.349976 12.1651 0.349976 10.3333V5.00002Z" fill="#949BA9"/>
</svg>
