<svg width="20" height="20" viewBox="0 0 20 20" fill="none" xmlns="http://www.w3.org/2000/svg">
<path d="M11.6875 3.25H4.9375C4.78832 3.25 4.64524 3.30926 4.53975 3.41475C4.43426 3.52024 4.375 3.66332 4.375 3.8125V8.875C4.375 9.02418 4.43426 9.16726 4.53975 9.27275C4.64524 9.37824 4.78832 9.4375 4.9375 9.4375H11.6875C11.8367 9.4375 11.9798 9.37824 12.0852 9.27275C12.1907 9.16726 12.25 9.02418 12.25 8.875V3.8125C12.25 3.66332 12.1907 3.52024 12.0852 3.41475C11.9798 3.30926 11.8367 3.25 11.6875 3.25V3.25ZM11.125 8.3125H5.5V4.375H11.125V8.3125Z" fill="#949BA9"/>
<path fill-rule="evenodd" clip-rule="evenodd" d="M4.9375 2.94995H11.6875C11.9162 2.94995 12.1356 3.04082 12.2974 3.20257C12.4591 3.36432 12.55 3.5837 12.55 3.81245V8.87495C12.55 9.1037 12.4591 9.32308 12.2974 9.48483C12.1356 9.64658 11.9162 9.73745 11.6875 9.73745H4.9375C4.70875 9.73745 4.48937 9.64658 4.32762 9.48483C4.16587 9.32308 4.075 9.1037 4.075 8.87495V3.81245C4.075 3.5837 4.16587 3.36432 4.32762 3.20257C4.48937 3.04082 4.70875 2.94995 4.9375 2.94995ZM5.8 8.01245H10.825V4.67495H5.8V8.01245ZM4.9375 3.24995H11.6875C11.8367 3.24995 11.9798 3.30921 12.0852 3.4147C12.1907 3.52019 12.25 3.66327 12.25 3.81245V8.87495C12.25 9.02414 12.1907 9.16721 12.0852 9.2727C11.9798 9.37819 11.8367 9.43745 11.6875 9.43745H4.9375C4.78831 9.43745 4.64524 9.37819 4.53975 9.2727C4.43426 9.16721 4.375 9.02414 4.375 8.87495V3.81245C4.375 3.66327 4.43426 3.52019 4.53975 3.4147C4.64524 3.30921 4.78831 3.24995 4.9375 3.24995ZM11.125 8.31245V4.37495H5.5V8.31245H11.125Z" fill="#949BA9"/>
<path d="M18.3385 11.0879L16.939 8.9875C16.8156 8.80309 16.7498 8.58615 16.75 8.36425V6.20312C16.7493 5.89761 16.6778 5.59641 16.5412 5.32315C16.4046 5.04988 16.2065 4.81199 15.9625 4.62812L14.5 3.53125V2.6875C14.5 2.23995 14.3222 1.81072 14.0057 1.49426C13.6893 1.17779 13.2601 1 12.8125 1H3.8125C3.36495 1 2.93573 1.17779 2.61926 1.49426C2.30279 1.81072 2.125 2.23995 2.125 2.6875V17.875H1.5625C1.41332 17.875 1.27024 17.9343 1.16475 18.0398C1.05926 18.1452 1 18.2883 1 18.4375C1 18.5867 1.05926 18.7298 1.16475 18.8352C1.27024 18.9407 1.41332 19 1.5625 19H15.0625C15.2117 19 15.3548 18.9407 15.4602 18.8352C15.5657 18.7298 15.625 18.5867 15.625 18.4375C15.625 18.2883 15.5657 18.1452 15.4602 18.0398C15.3548 17.9343 15.2117 17.875 15.0625 17.875H14.5V11.6875C14.6492 11.6875 14.7923 11.7468 14.8977 11.8523C15.0032 11.9577 15.0625 12.1008 15.0625 12.25V14.7812C15.0625 15.3034 15.2699 15.8042 15.6391 16.1734C16.0083 16.5426 16.5091 16.75 17.0313 16.75C17.5534 16.75 18.0542 16.5426 18.4234 16.1734C18.7926 15.8042 19 15.3034 19 14.7812V13.2721C19.0007 12.4945 18.7705 11.7343 18.3385 11.0879V11.0879ZM3.25 17.875V2.6875C3.25 2.53832 3.30926 2.39524 3.41475 2.28975C3.52024 2.18426 3.66332 2.125 3.8125 2.125H12.8125C12.9617 2.125 13.1048 2.18426 13.2102 2.28975C13.3157 2.39524 13.375 2.53832 13.375 2.6875V17.875H3.25ZM17.875 14.7812C17.875 15.005 17.7861 15.2196 17.6279 15.3779C17.4696 15.5361 17.255 15.625 17.0313 15.625C16.8075 15.625 16.5929 15.5361 16.4346 15.3779C16.2764 15.2196 16.1875 15.005 16.1875 14.7812V12.25C16.1875 11.8024 16.0097 11.3732 15.6932 11.0568C15.3768 10.7403 14.9476 10.5625 14.5 10.5625V4.9375L15.2875 5.52813C15.3921 5.6069 15.477 5.70885 15.5356 5.82597C15.5941 5.94308 15.6247 6.07218 15.625 6.20312V8.36425C15.6244 8.80842 15.756 9.24272 16.003 9.61188L17.4025 11.7117C17.711 12.1736 17.8755 12.7166 17.875 13.2721V14.7812Z" fill="#949BA9"/>
<path fill-rule="evenodd" clip-rule="evenodd" d="M18.5879 10.9211L17.1887 8.8211ZM17.1887 8.8211C17.0983 8.68614 17.0499 8.52687 17.05 8.36447ZM17.05 8.36447L17.05 6.20308ZM16.143 4.38849C16.4241 4.60024 16.6522 4.87422 16.8095 5.18893C16.9669 5.50365 17.0492 5.85122 17.05 6.20308M16.939 8.98745L18.3385 11.0878C18.7705 11.7343 19.0007 12.4945 19 13.272V14.7812C19 15.3033 18.7926 15.8041 18.4234 16.1733C18.0542 16.5425 17.5534 16.75 17.0312 16.75C16.5091 16.75 16.0083 16.5425 15.6391 16.1733C15.2699 15.8041 15.0625 15.3033 15.0625 14.7812V12.25C15.0625 12.1008 15.0032 11.9577 14.8977 11.8522C14.8679 11.8224 14.8351 11.7963 14.8 11.7741C14.7109 11.7179 14.607 11.6875 14.5 11.6875V17.875H15.0625C15.2117 17.875 15.3548 17.9342 15.4602 18.0397C15.5657 18.1452 15.625 18.2883 15.625 18.4375C15.625 18.5866 15.5657 18.7297 15.4602 18.8352C15.3548 18.9407 15.2117 19 15.0625 19H1.5625C1.41331 19 1.27024 18.9407 1.16475 18.8352C1.05926 18.7297 0.999997 18.5866 0.999997 18.4375C0.999997 18.2883 1.05926 18.1452 1.16475 18.0397C1.27024 17.9342 1.41331 17.875 1.5625 17.875H2.125V2.68745C2.125 2.2399 2.30279 1.81068 2.61925 1.49421C2.93572 1.17774 3.36494 0.999951 3.8125 0.999951H12.8125C13.2601 0.999951 13.6893 1.17774 14.0057 1.49421C14.3222 1.81068 14.5 2.2399 14.5 2.68745V3.5312L15.9625 4.62808C16.2065 4.81194 16.4046 5.04983 16.5412 5.3231C16.6778 5.59636 16.7493 5.89756 16.75 6.20308V8.3642C16.7498 8.5861 16.8156 8.80304 16.939 8.98745ZM14.8 3.3812V2.68745C14.8 2.16033 14.5906 1.65481 14.2179 1.28208C13.8451 0.909348 13.3396 0.699951 12.8125 0.699951H3.8125C3.28538 0.699951 2.77985 0.909348 2.40712 1.28208C2.03439 1.6548 1.825 2.16033 1.825 2.68745V17.575H1.5625C1.33375 17.575 1.11437 17.6658 0.952617 17.8276C0.790867 17.9893 0.699997 18.2087 0.699997 18.4375C0.699997 18.6662 0.790867 18.8856 0.952617 19.0473C1.11437 19.2091 1.33375 19.2999 1.5625 19.2999H15.0625C15.2912 19.2999 15.5106 19.2091 15.6724 19.0473C15.8341 18.8856 15.925 18.6662 15.925 18.4375C15.925 18.2087 15.8341 17.9893 15.6724 17.8276C15.5106 17.6658 15.2912 17.575 15.0625 17.575H14.8V15.192C14.8827 15.641 15.0997 16.0581 15.427 16.3855C15.8525 16.8109 16.4295 17.0499 17.0312 17.0499C17.633 17.0499 18.21 16.8109 18.6355 16.3855C19.061 15.96 19.3 15.3829 19.3 14.7812V13.2723M16.143 4.38849L14.8 3.3812ZM17.4025 11.7116L16.003 9.61183C15.756 9.24267 15.6244 8.80837 15.625 8.3642V6.20308C15.6247 6.07213 15.5941 5.94304 15.5356 5.82592C15.477 5.7088 15.3921 5.60685 15.2875 5.52808L14.5 4.93745V10.5625C14.9476 10.5625 15.3768 10.7402 15.6932 11.0567C16.0097 11.3732 16.1875 11.8024 16.1875 12.25V14.7812C16.1875 15.005 16.2764 15.2196 16.4346 15.3778C16.5929 15.5361 16.8075 15.625 17.0312 15.625C17.255 15.625 17.4696 15.5361 17.6279 15.3778C17.7861 15.2196 17.875 15.005 17.875 14.7812V13.272C17.8755 12.7166 17.711 12.1735 17.4025 11.7116ZM14.8 10.2852C15.2161 10.3487 15.6041 10.5433 15.9054 10.8446C16.2781 11.2173 16.4875 11.7228 16.4875 12.25V14.7812C16.4875 14.9254 16.5448 15.0637 16.6468 15.1657C16.7487 15.2677 16.887 15.325 17.0312 15.325C17.1755 15.325 17.3138 15.2677 17.4157 15.1657C17.5177 15.0637 17.575 14.9254 17.575 14.7812V13.272C17.5754 12.776 17.4285 12.2907 17.153 11.8783L15.7537 9.77866C15.4737 9.36012 15.3243 8.86733 15.325 8.3638M14.8 10.2852V5.53745L15.107 5.76772C15.1069 5.76765 15.1071 5.76778 15.107 5.76772C15.1745 5.81857 15.2295 5.88454 15.2672 5.96008C15.3051 6.03572 15.3248 6.1191 15.325 6.20367V8.3638M3.55 2.68745V17.575H13.075V2.68745C13.075 2.61783 13.0473 2.55106 12.9981 2.50184C12.9489 2.45261 12.8821 2.42495 12.8125 2.42495H3.8125C3.74288 2.42495 3.67611 2.45261 3.62688 2.50184C3.57765 2.55106 3.55 2.61783 3.55 2.68745ZM3.25 17.875H13.375V2.68745C13.375 2.53827 13.3157 2.39519 13.2102 2.2897C13.1048 2.18421 12.9617 2.12495 12.8125 2.12495H3.8125C3.66331 2.12495 3.52024 2.18421 3.41475 2.2897C3.30926 2.39519 3.25 2.53827 3.25 2.68745V17.875Z" fill="#949BA9"/>
</svg>
