<svg width="18" height="18" viewBox="0 0 18 18" fill="none" xmlns="http://www.w3.org/2000/svg">
<path d="M9.05602 13.1629C6.7868 13.1629 4.9404 11.3165 4.9404 9.0473C4.9404 6.77807 6.7868 4.93166 9.05602 4.93166C11.3252 4.93166 13.1716 6.77807 13.1716 9.0473C13.1716 11.317 11.3252 13.1629 9.05602 13.1629ZM9.05602 6.64214C7.72993 6.64214 6.65087 7.7212 6.65087 9.0473C6.65087 10.3734 7.72993 11.4525 9.05602 11.4525C10.3821 11.4525 11.4612 10.3734 11.4612 9.0473C11.4612 7.7212 10.3821 6.64214 9.05602 6.64214Z" fill="#20212C"/>
<path d="M13.121 5.90533C13.6559 5.90533 14.0895 5.47174 14.0895 4.93689C14.0895 4.40204 13.6559 3.96845 13.121 3.96845C12.5862 3.96845 12.1526 4.40204 12.1526 4.93689C12.1526 5.47174 12.5862 5.90533 13.121 5.90533Z" fill="#20212C"/>
<path d="M12.4479 17.0573H5.55258C3.01102 17.0573 0.943359 14.9897 0.943359 12.4481V5.55233C0.943359 3.01077 3.01102 0.943115 5.55258 0.943115H12.4484C14.9899 0.943115 17.0576 3.01077 17.0576 5.55233V12.4481C17.0576 14.9892 14.9895 17.0573 12.4479 17.0573ZM5.55258 2.65312C3.95414 2.65312 2.65383 3.95343 2.65383 5.55187V12.4476C2.65383 14.0461 3.95414 15.3464 5.55258 15.3464H12.4484C14.0468 15.3464 15.3471 14.0461 15.3471 12.4476V5.55233C15.3471 3.9539 14.0468 2.65358 12.4484 2.65358L5.55258 2.65312Z" fill="#20212C"/>
</svg>
