<svg width="16" height="18" viewBox="0 0 16 18" fill="none" xmlns="http://www.w3.org/2000/svg">
<path fill-rule="evenodd" clip-rule="evenodd" d="M6.99396 1.16454C7.62739 0.847822 8.37298 0.847823 9.00642 1.16454L14.494 3.90831C15.5995 4.4611 15.5995 6.03881 14.494 6.59159L9.00642 9.33536C8.37298 9.65208 7.62739 9.65208 6.99396 9.33536L1.50642 6.59159L1.84183 5.92077L1.50642 6.59159C0.400842 6.0388 0.40085 4.46109 1.50642 3.90831L6.99396 1.16454ZM8.3356 2.50618C8.12445 2.40061 7.87592 2.40061 7.66478 2.50618L2.17724 5.24995L2.17724 5.24995L7.66478 7.99372C7.87592 8.09929 8.12445 8.09929 8.3356 7.99372L13.8231 5.24995L8.3356 2.50618ZM0.564829 9.44535C0.733057 9.06683 1.17628 8.89636 1.55479 9.06459L7.69558 11.7938C7.88951 11.88 8.11087 11.88 8.30479 11.7938L14.4456 9.06459C14.8241 8.89636 15.2673 9.06683 15.4355 9.44535C15.6038 9.82386 15.4333 10.2671 15.0548 10.4353L8.914 13.1646C8.33223 13.4231 7.66815 13.4231 7.08638 13.1646L0.945583 10.4353C0.56707 10.2671 0.3966 9.82386 0.564829 9.44535ZM0.564829 13.1953C0.733057 12.8168 1.17628 12.6464 1.55479 12.8146L7.69558 15.5438C7.88951 15.63 8.11087 15.63 8.30479 15.5438L14.4456 12.8146C14.8241 12.6464 15.2673 12.8168 15.4355 13.1953C15.6038 13.5739 15.4333 14.0171 15.0548 14.1853L8.914 16.9146C8.33223 17.1731 7.66815 17.1731 7.08638 16.9146L0.945583 14.1853C0.56707 14.0171 0.3966 13.5739 0.564829 13.1953Z" fill="#949BA9"/>
</svg>
