<svg width="22" height="18" viewBox="0 0 22 18" fill="none" xmlns="http://www.w3.org/2000/svg">
<path fill-rule="evenodd" clip-rule="evenodd" d="M19 1.9001C18.3925 1.9001 17.9 2.39258 17.9 3.0001C17.9 3.381 18.0928 3.71722 18.3904 3.91599C18.5645 4.03229 18.773 4.1001 19 4.1001C19.6075 4.1001 20.1 3.60761 20.1 3.0001C20.1 2.39258 19.6075 1.9001 19 1.9001ZM16.1 3.0001C16.1 1.39847 17.3984 0.100098 19 0.100098C20.6016 0.100098 21.9 1.39847 21.9 3.0001C21.9 4.60172 20.6016 5.9001 19 5.9001C18.73 5.9001 18.468 5.86299 18.2193 5.79358L13.278 13.2055C13.667 13.6988 13.9 14.3221 13.9 15.0001C13.9 16.6017 12.6016 17.9001 11 17.9001C9.39838 17.9001 8.10001 16.6017 8.10001 15.0001C8.10001 14.6736 8.15422 14.3592 8.2541 14.0657L4.66553 11.3742C4.19455 11.7051 3.61999 11.9001 3.00001 11.9001C1.39838 11.9001 0.100006 10.6017 0.100006 9.0001C0.100006 7.39847 1.39838 6.1001 3.00001 6.1001C4.60163 6.1001 5.90001 7.39847 5.90001 9.0001C5.90001 9.32657 5.84579 9.64103 5.74591 9.93453L9.33448 12.626C9.80546 12.2951 10.38 12.1001 11 12.1001C11.27 12.1001 11.532 12.1372 11.7807 12.2066L16.722 4.79466C16.333 4.30142 16.1 3.67805 16.1 3.0001ZM3.00001 7.9001C2.39249 7.9001 1.90001 8.39258 1.90001 9.0001C1.90001 9.60761 2.39249 10.1001 3.00001 10.1001C3.35929 10.1001 3.6783 9.9288 3.88051 9.65962C4.01856 9.47585 4.10001 9.24878 4.10001 9.0001C4.10001 8.39258 3.60752 7.9001 3.00001 7.9001ZM11 13.9001C10.6407 13.9001 10.3217 14.0714 10.1195 14.3406C9.98145 14.5243 9.90001 14.7514 9.90001 15.0001C9.90001 15.6076 10.3925 16.1001 11 16.1001C11.6075 16.1001 12.1 15.6076 12.1 15.0001C12.1 14.6192 11.9072 14.283 11.6096 14.0842C11.4355 13.9679 11.227 13.9001 11 13.9001Z" fill="#949BA9"/>
</svg>
