<svg width="43" height="33" viewBox="0 0 43 33" fill="none" xmlns="http://www.w3.org/2000/svg">
<path d="M3.88463 30.1373C1.43838 27.5391 0.125 24.625 0.125 19.9011C0.125 11.5886 5.96037 4.13821 14.4462 0.45459L16.5671 3.72734C8.6465 8.01184 7.098 13.5717 6.4805 17.0772C7.75588 16.417 9.4255 16.1866 11.0619 16.3386C15.3464 16.7352 18.7236 20.2526 18.7236 24.625C18.7236 26.8296 17.8478 28.9439 16.2889 30.5028C14.7301 32.0617 12.6157 32.9375 10.4111 32.9375C7.86275 32.9375 5.426 31.7737 3.88463 30.1373ZM27.6346 30.1373C25.1884 27.5391 23.875 24.625 23.875 19.9011C23.875 11.5886 29.7104 4.13821 38.1963 0.45459L40.3171 3.72734C32.3965 8.01184 30.848 13.5717 30.2305 17.0772C31.5059 16.417 33.1755 16.1866 34.8119 16.3386C39.0964 16.7352 42.4736 20.2526 42.4736 24.625C42.4736 26.8296 41.5978 28.9439 40.039 30.5028C38.4801 32.0617 36.3657 32.9375 34.1611 32.9375C31.6127 32.9375 29.176 31.7737 27.6346 30.1373Z" fill="#6170EF"/>
</svg>
