<svg width="16" height="16" viewBox="0 0 16 16" fill="none" xmlns="http://www.w3.org/2000/svg">
<path fill-rule="evenodd" clip-rule="evenodd" d="M0.25 7.66683C0.25 3.75481 3.42132 0.583496 7.33333 0.583496C11.2453 0.583496 14.4167 3.75481 14.4167 7.66683C14.4167 9.35268 13.8277 10.901 12.8444 12.1172L14.8637 14.1365C15.1566 14.4294 15.1566 14.9043 14.8637 15.1972C14.5708 15.4901 14.0959 15.4901 13.803 15.1972L11.7837 13.1778C10.5675 14.1612 9.01918 14.7502 7.33333 14.7502C3.42132 14.7502 0.25 11.5788 0.25 7.66683ZM7.33333 2.0835C4.24974 2.0835 1.75 4.58324 1.75 7.66683C1.75 10.7504 4.24974 13.2502 7.33333 13.2502C10.4169 13.2502 12.9167 10.7504 12.9167 7.66683C12.9167 4.58324 10.4169 2.0835 7.33333 2.0835Z" fill="#949BA9"/>
</svg>
