<svg width="18" height="19" viewBox="0 0 18 19" fill="none" xmlns="http://www.w3.org/2000/svg">
<path fill-rule="evenodd" clip-rule="evenodd" d="M10.1 4.14731C10.1 1.98595 11.8383 0.219727 14 0.219727C16.1617 0.219727 17.9 1.98595 17.9 4.14731C17.9 6.30867 16.1617 8.07489 14 8.07489C11.8383 8.07489 10.1 6.30867 10.1 4.14731ZM14 2.01973C12.848 2.01973 11.9 2.96449 11.9 4.14731C11.9 5.33012 12.848 6.27489 14 6.27489C15.1521 6.27489 16.1 5.33012 16.1 4.14731C16.1 2.96449 15.1521 2.01973 14 2.01973ZM3.1 2.49399V15.8926L1.67538 14.2751C1.34684 13.9021 0.778136 13.8661 0.405136 14.1946C0.0321353 14.5231 -0.00391057 15.0919 0.324625 15.4649L1.82981 17.1738C2.98373 18.4839 5.01627 18.4839 6.1702 17.1738L7.67538 15.4649C8.00391 15.0919 7.96787 14.5231 7.59487 14.1946C7.22187 13.8661 6.65316 13.9021 6.32463 14.2751L4.9 15.8926V2.49399L6.32463 4.11143L7.67538 2.9217L6.1702 1.2128C5.01627 -0.097304 2.98373 -0.097304 1.82981 1.2128L1.82981 1.2128L0.324625 2.9217C-0.00391069 3.2947 0.0321355 3.8634 0.405136 4.19194C0.778137 4.52047 1.34684 4.48443 1.67538 4.11143L3.1 2.49399ZM10.1 14.2392C10.1 12.0779 11.8383 10.3117 14 10.3117C16.1617 10.3117 17.9 12.0779 17.9 14.2392C17.9 16.4006 16.1617 18.1668 14 18.1668C11.8383 18.1668 10.1 16.4006 10.1 14.2392ZM14 12.1117C12.848 12.1117 11.9 13.0564 11.9 14.2392C11.9 15.4221 12.848 16.3668 14 16.3668C15.1521 16.3668 16.1 15.4221 16.1 14.2392C16.1 13.0564 15.1521 12.1117 14 12.1117Z" fill="#949BA9"/>
</svg>
