<svg width="6" height="8" viewBox="0 0 6 8" fill="none" xmlns="http://www.w3.org/2000/svg">
<path d="M0.454484 3.27269H5.54531C5.6438 3.27269 5.72906 3.23673 5.801 3.16475C5.8729 3.09279 5.909 3.00758 5.909 2.90909C5.909 2.8106 5.87292 2.72543 5.801 2.65337L3.25557 0.107941C3.18365 0.0360599 3.09846 0 2.99991 0C2.90136 0 2.81617 0.0360599 2.74419 0.107941L0.198761 2.65337C0.126781 2.72535 0.0908203 2.8106 0.0908203 2.90909C0.0908203 3.00756 0.126781 3.09279 0.198761 3.16475C0.270821 3.23673 0.356016 3.27269 0.454484 3.27269Z" fill="#949BA9"/>
<path d="M5.54531 4.72754H0.454484C0.355936 4.72754 0.270742 4.76352 0.198761 4.83542C0.126781 4.9074 0.0908203 4.9926 0.0908203 5.09108C0.0908203 5.18957 0.126781 5.27483 0.198761 5.34677L2.74419 7.89215C2.81625 7.96413 2.90144 8.00017 2.99991 8.00017C3.09838 8.00017 3.18365 7.96413 3.25557 7.89215L5.801 5.34675C5.8729 5.27483 5.909 5.18957 5.909 5.09106C5.909 4.9926 5.87292 4.9074 5.801 4.8354C5.72908 4.76344 5.6438 4.72754 5.54531 4.72754Z" fill="#949BA9"/>
</svg>
