<svg width="20" height="16" viewBox="0 0 20 16" fill="none" xmlns="http://www.w3.org/2000/svg">
<path d="M19.576 2.04795C18.856 2.35995 18.112 2.57595 17.32 2.67195C18.136 2.19195 18.76 1.42395 19.048 0.487951C18.28 0.943951 17.44 1.25595 16.552 1.44795C15.832 0.679951 14.8 0.199951 13.672 0.199951C11.488 0.199951 9.73598 1.97595 9.73598 4.13595C9.73598 4.44795 9.75998 4.73595 9.83198 5.02395C6.56798 4.87995 3.68798 3.29595 1.74398 0.919951C0.351977 3.41595 1.91198 5.47995 2.94398 6.17595C2.31998 6.17595 1.69598 5.98395 1.16798 5.69595C1.16798 7.63995 2.53598 9.24795 4.31198 9.60795C3.92798 9.72795 3.06398 9.79995 2.53598 9.67995C3.03998 11.24 4.50398 12.392 6.20798 12.416C4.86398 13.472 2.89598 14.3119 0.375977 14.0479C2.12798 15.176 4.19198 15.824 6.42398 15.824C13.672 15.824 17.608 9.82395 17.608 4.63995C17.608 4.47195 17.608 4.30395 17.584 4.13595C18.4 3.53595 19.072 2.83995 19.576 2.04795Z" fill="#20212C"/>
</svg>
