<svg width="18" height="18" viewBox="0 0 18 18" fill="none" xmlns="http://www.w3.org/2000/svg">
<g clip-path="url(#clip0_907_26211)">
<path fill-rule="evenodd" clip-rule="evenodd" d="M0.75 4.5C0.75 4.08579 1.08579 3.75 1.5 3.75H13.5C15.5711 3.75 17.25 5.42893 17.25 7.5V13.5C17.25 15.5711 15.5711 17.25 13.5 17.25H4.5C2.42893 17.25 0.75 15.5711 0.75 13.5V4.5ZM2.25 5.25V13.5C2.25 14.7426 3.25736 15.75 4.5 15.75H13.5C14.7426 15.75 15.75 14.7426 15.75 13.5V7.5C15.75 6.25736 14.7426 5.25 13.5 5.25H2.25Z" fill="#949BA9"/>
<path fill-rule="evenodd" clip-rule="evenodd" d="M0.75 4.5C0.75 2.42893 2.42893 0.75 4.5 0.75H9C11.0711 0.75 12.75 2.42893 12.75 4.5C12.75 4.91421 12.4142 5.25 12 5.25H1.5C1.08579 5.25 0.75 4.91421 0.75 4.5ZM2.37803 3.75H11.122C10.8131 2.87611 9.97966 2.25 9 2.25H4.5C3.52034 2.25 2.68691 2.87611 2.37803 3.75Z" fill="#949BA9"/>
<path fill-rule="evenodd" clip-rule="evenodd" d="M13.5 9.75C13.0858 9.75 12.75 10.0858 12.75 10.5C12.75 10.9142 13.0858 11.25 13.5 11.25H15.75L15.75 9.75L13.5 9.75ZM11.25 10.5C11.25 9.25736 12.2574 8.25 13.5 8.25L16.5 8.25C16.6989 8.25 16.8897 8.32902 17.0303 8.46967C17.171 8.61032 17.25 8.80109 17.25 9L17.25 12C17.25 12.4142 16.9142 12.75 16.5 12.75H13.5C12.2574 12.75 11.25 11.7426 11.25 10.5Z" fill="#949BA9"/>
</g>
<defs>
<clipPath id="clip0_907_26211">
<rect width="18" height="18" fill="white"/>
</clipPath>
</defs>
</svg>
