<svg width="22" height="16" viewBox="0 0 22 16" fill="none" xmlns="http://www.w3.org/2000/svg">
<path d="M21.1425 1.58775C20.3484 0.643738 18.8822 0.258667 16.0821 0.258667H5.91772C3.05353 0.258667 1.5625 0.668577 0.771348 1.67362C0 2.65354 0 4.09738 0 6.09569V9.90446C0 13.7758 0.9152 15.7414 5.91772 15.7414H16.0821C18.5104 15.7414 19.8559 15.4016 20.7264 14.5685C21.6191 13.7142 22 12.3194 22 9.90446V6.09569C22 3.98831 21.9403 2.53595 21.1425 1.58775ZM14.1241 8.52591L9.50847 10.9382C9.40528 10.9921 9.29245 11.0189 9.17975 11.0189C9.05215 11.0189 8.92483 10.9845 8.81206 10.9162C8.59973 10.7876 8.47007 10.5574 8.47007 10.3092V5.50013C8.47007 5.25231 8.59937 5.02238 8.81128 4.89364C9.02326 4.76491 9.28691 4.75611 9.50684 4.87036L14.1224 7.26709C14.3573 7.38901 14.5047 7.63144 14.5051 7.89593C14.5054 8.16064 14.3585 8.40342 14.1241 8.52591Z" fill="#20212C"/>
</svg>
