<svg width="91" height="14" viewBox="0 0 91 14" fill="none" xmlns="http://www.w3.org/2000/svg">
<g clip-path="url(#clip0_1201_13236)">
<path d="M21.3532 12.8162V2.00854H28.84V3.85504H23.6627V6.61348H28.3721V8.4524H23.6702V12.8162H21.3532Z" fill="#212121"/>
<path d="M30.248 12.8164V1.23999H32.4216V12.8164H30.248Z" fill="#212121"/>
<path d="M37.3541 4.20166C38.0636 4.20166 38.6825 4.32225 39.2108 4.56342C39.7441 4.8046 40.134 5.14124 40.3806 5.57335L40.4787 4.32979H42.5542V12.8161H40.4787L40.3806 11.565C39.9177 12.4795 38.9089 12.9367 37.3541 12.9367C36.8057 12.9367 36.285 12.8287 35.7919 12.6126C35.3038 12.3966 34.8761 12.0976 34.5089 11.7157C34.1466 11.3339 33.8623 10.8691 33.656 10.3215C33.4498 9.77377 33.3466 9.19097 33.3466 8.57294C33.3466 7.95492 33.4498 7.37211 33.656 6.82443C33.8623 6.27677 34.1466 5.80949 34.5089 5.42261C34.8761 5.04075 35.3038 4.74179 35.7919 4.52574C36.285 4.30969 36.8057 4.20166 37.3541 4.20166ZM37.9428 11.0977C38.6221 11.0977 39.2007 10.8591 39.6787 10.3818C40.1466 9.90442 40.3806 9.29902 40.3806 8.56541C40.3806 7.83186 40.1466 7.22891 39.6787 6.7566C39.2058 6.28431 38.6271 6.04815 37.9428 6.04815C37.2586 6.04815 36.6875 6.28431 36.2297 6.7566C35.7617 7.22891 35.5277 7.83437 35.5277 8.57294C35.5277 9.30153 35.7617 9.90442 36.2297 10.3818C36.6975 10.8591 37.2686 11.0977 37.9428 11.0977Z" fill="#212121"/>
<path d="M44.7697 4.32973V2.41541H46.9433V4.32973H49.0414V6.02549H46.9433V9.87674C46.9433 10.5701 47.2049 10.9545 47.7282 11.0299C48.1257 11.1153 48.5634 11.1103 49.0414 11.0148V12.801C48.4779 12.8914 47.9496 12.9367 47.4565 12.9367C46.4854 12.9367 45.7961 12.6929 45.3885 12.2056C44.976 11.7182 44.7697 10.9671 44.7697 9.95214V6.02549H43.615V4.32973H44.7697Z" fill="#212121"/>
<path d="M54.0645 12.9367C53.2192 12.9367 52.4494 12.7609 51.7551 12.4091C51.0658 12.0574 50.5123 11.5499 50.0947 10.8867C49.672 10.2134 49.4607 9.44216 49.4607 8.57294C49.4607 7.69368 49.672 6.91989 50.0947 6.25165C50.5174 5.57837 51.0758 5.06838 51.7702 4.7217C52.4645 4.37501 53.2293 4.20166 54.0645 4.20166C54.9048 4.20166 55.6696 4.37752 56.3589 4.72923C57.0532 5.08095 57.6117 5.58841 58.0343 6.25165C58.457 6.91989 58.6683 7.69368 58.6683 8.57294C58.6683 9.44216 58.457 10.2134 58.0343 10.8867C57.6017 11.565 57.0406 12.075 56.3513 12.4166C55.657 12.7634 54.8947 12.9367 54.0645 12.9367ZM54.0645 11.0977C54.7387 11.0977 55.3148 10.8591 55.7928 10.3818C56.2657 9.90944 56.5023 9.30404 56.5023 8.56541C56.5023 7.83186 56.2657 7.22891 55.7928 6.7566C55.3199 6.28431 54.7437 6.04815 54.0645 6.04815C53.3802 6.04815 52.8041 6.28431 52.3362 6.7566C51.8633 7.22891 51.6268 7.83186 51.6268 8.56541C51.6268 9.30404 51.8633 9.90944 52.3362 10.3818C52.8041 10.8591 53.3802 11.0977 54.0645 11.0977Z" fill="#212121"/>
<path d="M67.9025 12.8161H65.7367V8.57294C65.7367 7.72884 65.5908 7.09826 65.2991 6.68124C65.0074 6.25918 64.5441 6.04815 63.9103 6.04815C63.221 6.04815 62.6927 6.27426 62.3253 6.72645C61.953 7.18872 61.7669 7.80418 61.7669 8.57294V12.8161H59.5933V4.32979H61.6763L61.7669 5.57334C62.2801 4.65889 63.2386 4.20166 64.6421 4.20166C65.8046 4.20166 66.6376 4.57347 67.1405 5.31709C67.6485 6.06574 67.9025 7.15106 67.9025 8.57294V12.8161Z" fill="#212121"/>
<path d="M70.1859 3.21451C69.8238 3.21451 69.517 3.08891 69.2655 2.83768C69.014 2.58646 68.8883 2.27997 68.8883 1.9182C68.8883 1.56649 69.014 1.26502 69.2655 1.0138C69.517 0.762575 69.8238 0.636963 70.1859 0.636963C70.5386 0.636963 70.8404 0.762575 71.0918 1.0138C71.3433 1.26502 71.4691 1.56649 71.4691 1.9182C71.4691 2.27997 71.3433 2.58646 71.0918 2.83768C70.8404 3.08891 70.5386 3.21451 70.1859 3.21451ZM69.092 12.8163V4.32995H71.2654V12.8163H69.092Z" fill="#212121"/>
<path d="M76.7036 11.143C77.1512 11.143 77.5542 11.0324 77.9113 10.8114C78.2684 10.5903 78.545 10.2737 78.7411 9.86173L80.7341 10.6682C80.3814 11.3615 79.8407 11.9142 79.1114 12.3262C78.3765 12.7332 77.5743 12.9367 76.7036 12.9367C75.8586 12.9367 75.0884 12.7609 74.3944 12.4091C73.7047 12.0574 73.1514 11.5499 72.734 10.8867C72.3109 10.2134 72.0996 9.44216 72.0996 8.57294C72.0996 7.69368 72.3109 6.91989 72.734 6.25165C73.1565 5.57837 73.7148 5.06838 74.4095 4.7217C75.1035 4.37501 75.8686 4.20166 76.7036 4.20166C77.5743 4.20166 78.3765 4.40516 79.1114 4.81213C79.8407 5.22414 80.3814 5.77683 80.7341 6.47021L78.7411 7.28415C78.545 6.87217 78.2684 6.55563 77.9113 6.33455C77.5542 6.11347 77.1512 6.00294 76.7036 6.00294C76.0195 6.00294 75.443 6.2416 74.9753 6.71892C74.5025 7.19124 74.2661 7.80675 74.2661 8.56541C74.2661 9.32915 74.5025 9.94711 74.9753 10.4194C75.443 10.9018 76.0195 11.143 76.7036 11.143Z" fill="#212121"/>
<path d="M85.2739 4.20166C85.9831 4.20166 86.6023 4.32225 87.1304 4.56342C87.6635 4.8046 88.054 5.14124 88.3004 5.57335L88.3985 4.32979H90.4738V12.8161H88.3985L88.3004 11.565C87.8377 12.4795 86.8286 12.9367 85.2739 12.9367C84.7257 12.9367 84.2045 12.8287 83.7116 12.6126C83.2237 12.3966 82.7962 12.0976 82.4284 11.7157C82.0663 11.3339 81.7821 10.8691 81.5759 10.3215C81.3697 9.77377 81.2666 9.19097 81.2666 8.57294C81.2666 7.95492 81.3697 7.37211 81.5759 6.82443C81.7821 6.27677 82.0663 5.80949 82.4284 5.42261C82.7962 5.04075 83.2237 4.74179 83.7116 4.52574C84.2045 4.30969 84.7257 4.20166 85.2739 4.20166ZM85.8623 11.0977C86.542 11.0977 87.1204 10.8591 87.5982 10.3818C88.0665 9.90442 88.3004 9.29902 88.3004 8.56541C88.3004 7.83186 88.0665 7.22891 87.5982 6.7566C87.1254 6.28431 86.547 6.04815 85.8623 6.04815C85.1783 6.04815 84.6075 6.28431 84.1492 6.7566C83.6814 7.22891 83.4475 7.83437 83.4475 8.57294C83.4475 9.30153 83.6814 9.90442 84.1492 10.3818C84.6175 10.8591 85.1884 11.0977 85.8623 11.0977Z" fill="#212121"/>
<path fill-rule="evenodd" clip-rule="evenodd" d="M2.61317 1.60181H12.463H15.3719H15.5372L13.3802 13.8213H5.87782L6.35336 11.1737H10.7985L11.1647 9.06602L11.1586 9.09528H6.70925L7.208 6.44984H11.7L12.0329 4.33497H5.15393L3.47502 13.8178L0.468422 13.8012L2.14763 4.20845H2.14826L2.61317 1.60181Z" fill="#3A81FF"/>
</g>
<defs>
<clipPath id="clip0_1201_13236">
<rect width="90.5316" height="13.1842" fill="white" transform="translate(0.468445 0.636841)"/>
</clipPath>
</defs>
</svg>
