<svg width="188" height="33" viewBox="0 0 188 33" fill="none" xmlns="http://www.w3.org/2000/svg">
<path d="M8.5657 20.9365C9.45443 20.9365 10.1987 20.7026 10.7987 20.2351C11.3986 19.7675 11.7875 19.1247 11.9651 18.3063H16.5978C16.3757 20.3636 15.5091 22.047 13.9982 23.3562C12.5094 24.642 10.6987 25.285 8.56552 25.285C6.14365 25.285 4.11056 24.455 2.46627 22.7951C0.821974 21.1119 0 19.0194 0 16.5178C0 14.0162 0.821974 11.9356 2.46627 10.2757C4.11056 8.59244 6.14365 7.75073 8.56552 7.75073C10.6763 7.75073 12.4872 8.40523 13.9982 9.7146C15.5089 11.0238 16.3757 12.6953 16.5978 14.7293H11.9651C11.7873 13.9111 11.3986 13.2623 10.7987 12.7829C10.1987 12.3036 9.45443 12.064 8.5657 12.064C7.38805 12.064 6.42718 12.4848 5.68272 13.3265C4.93843 14.1682 4.56612 15.232 4.56612 16.5178C4.56612 17.8036 4.93826 18.8615 5.68272 19.6916C6.427 20.5216 7.38805 20.9365 8.5657 20.9365ZM181.853 13.4445C183.594 11.429 185.541 9.53469 187.693 7.7615H181.507C180.387 8.51745 179.26 9.63687 178.125 11.1196C179.441 11.7513 180.693 12.536 181.853 13.4445ZM171.8 11.0774C175.732 11.3854 179.507 13.2973 182.422 16.1056C184.994 18.5849 186.879 21.6927 188 24.8991C184.423 24.9258 182.527 24.8991 182.527 24.8991C180.752 21.6073 178.593 19.2263 176.051 17.7554V24.8991H171.8V11.0774H171.8ZM23.5398 8.10125V9.99505C25.0508 8.54555 26.9172 7.8208 29.1391 7.8208V12.4499C26.6951 12.5669 24.8286 13.3734 23.5398 14.8696V24.8993H18.9071V8.10125H23.5398ZM49.8125 8.06621L39.7138 32.9651H34.8479L37.9475 25.3201L30.1819 8.06621H35.1146L40.2805 19.5337L44.9465 8.06621H49.8125ZM60.4538 7.75055C62.6313 7.75055 64.4977 8.60394 66.0531 10.3105C67.6084 12.0173 68.3862 14.0863 68.3862 16.5176C68.3862 18.9491 67.6084 21.0181 66.0531 22.7247C64.5199 24.4079 62.6535 25.2498 60.4538 25.2498C58.7429 25.2498 57.2319 24.8055 55.9209 23.9171V33H51.2882V8.10106H55.9209V9.0829C57.2319 8.19448 58.7429 7.75037 60.4538 7.75037V7.75055ZM59.6871 21.1117C60.8647 21.1117 61.8424 20.6674 62.62 19.779C63.42 18.8672 63.8199 17.7801 63.8199 16.5176C63.8199 15.3018 63.42 14.2147 62.62 13.2562C61.8201 12.3211 60.8425 11.8534 59.6871 11.8534C58.0874 11.8534 56.8319 12.5079 55.9209 13.8173V19.1829C56.8541 20.4687 58.1096 21.1117 59.6871 21.1117ZM82.6602 20.4804L83.2601 24.6535C81.7269 25.1679 80.2938 25.4252 78.9606 25.4252C77.0274 25.4252 75.4777 24.7646 74.3111 23.4438C73.1448 22.1229 72.5614 20.3753 72.5614 18.201V12.2041H69.1951V8.10106H72.5614V2.10418H77.1608V8.10106H82.9268V12.2041H77.1608V18.1658C77.1608 20.0127 78.0939 20.9364 79.9604 20.9364C80.6937 20.9364 81.5936 20.7844 82.6601 20.4804H82.6602ZM92.735 7.75055C95.1568 7.75055 97.1788 8.5804 98.8007 10.2403C100.423 11.8768 101.234 13.9693 101.234 16.5176C101.234 19.0893 100.423 21.2168 98.8007 22.9002C97.201 24.5835 95.179 25.4252 92.735 25.4252C90.2685 25.4252 88.2245 24.5835 86.6024 22.9002C84.9803 21.217 84.1694 19.0894 84.1694 16.5176C84.1694 13.9693 84.9805 11.8768 86.6024 10.2403C88.2465 8.5804 90.2907 7.75055 92.735 7.75055ZM92.735 21.0767C93.8904 21.0767 94.8346 20.644 95.5678 19.779C96.3012 18.9141 96.6676 17.8268 96.6676 16.5176C96.6676 15.2318 96.3066 14.1738 95.5845 13.3438C94.8624 12.514 93.9124 12.0989 92.7348 12.0989C91.5571 12.0989 90.5963 12.5138 89.8518 13.3438C89.1075 14.1738 88.7352 15.2316 88.7352 16.5176C88.7352 17.8268 89.1074 18.9141 89.8518 19.779C90.5961 20.644 91.5571 21.0767 92.7348 21.0767H92.735ZM102.743 19.0776L106.976 19.1128C107.22 20.7727 108.331 21.6025 110.309 21.6025C111.109 21.6025 111.758 21.4741 112.258 21.2168C112.758 20.9597 113.008 20.6088 113.008 20.1647C113.008 19.3932 112.475 18.9256 111.409 18.7619L108.009 18.1658C106.565 17.9087 105.42 17.365 104.576 16.5351C103.732 15.7051 103.309 14.5888 103.309 13.186C103.309 11.5028 103.937 10.1585 105.193 9.15315C106.448 8.14777 108.12 7.64508 110.208 7.64508C111.764 7.64508 113.241 8.00746 114.641 8.73221C115.419 9.12962 116.047 9.72573 116.524 10.5207C117.002 11.3157 117.285 12.2625 117.374 13.3613L113.141 13.3964C113.097 12.695 112.808 12.1689 112.275 11.8182C111.742 11.4675 111.053 11.2922 110.208 11.2922C109.475 11.2922 108.897 11.4267 108.475 11.6954C108.053 11.9644 107.842 12.3091 107.842 12.73C107.842 13.5717 108.475 14.0978 109.742 14.3081L112.642 14.7992C115.863 15.3602 117.474 17.0084 117.474 19.7438C117.474 21.544 116.819 22.9409 115.508 23.9346C114.197 24.9281 112.453 25.425 110.275 25.425C108.187 25.425 106.453 24.9223 105.076 23.9169C103.698 22.9115 102.921 21.2985 102.743 19.0774V19.0776ZM129.282 7.57502C131.393 7.57502 133.082 8.31163 134.348 9.7843C135.637 11.2338 136.281 13.1977 136.281 15.6759V24.8989H131.649V16.0967C131.649 14.7641 131.349 13.7471 130.749 13.0457C130.149 12.3443 129.305 11.9936 128.216 11.9936C126.994 11.9936 125.827 12.695 124.716 14.0978V24.8989H120.084V0H124.716V9.29329C126.072 8.14777 127.594 7.57483 129.282 7.57483L129.282 7.57502ZM155.884 8.10106V24.8991H151.251V23.9173C149.94 24.8057 148.429 25.25 146.718 25.25C144.541 25.25 142.652 24.4198 141.085 22.7249C139.519 21.0298 138.752 18.9491 138.752 16.5178C138.752 14.0396 139.541 11.9819 141.085 10.3107C142.652 8.61543 144.518 7.75073 146.718 7.75073C148.429 7.75073 149.94 8.19503 151.251 9.08327V8.10143H155.884V8.10106ZM147.485 21.1117C149.062 21.1117 150.318 20.4687 151.251 19.1829V13.8173C150.34 12.5081 149.084 11.8534 147.485 11.8534C146.285 11.8534 145.29 12.3041 144.518 13.2212C143.735 14.1512 143.352 15.2551 143.352 16.5176C143.352 17.7567 143.73 18.8542 144.518 19.779C145.285 20.6778 146.285 21.1117 147.485 21.1117ZM163.892 8.10106V9.99486C165.403 8.54536 167.269 7.82061 169.491 7.82061V12.4497C167.047 12.5667 165.181 13.3732 163.892 14.8694V24.8991H159.259V8.10106H163.892ZM171.8 9.40058V0.100538H176.051V10.2713C174.712 9.81605 173.326 9.52009 171.918 9.4097L171.8 9.40039V9.40058Z" fill="black"/>
</svg>
