<svg width="27" height="35" viewBox="0 0 27 35" fill="none" xmlns="http://www.w3.org/2000/svg">
<path d="M6.94025 0.322471C2.11227 7.46671 8.23606 17.9742 8.23606 17.9742C8.23606 17.9742 4.80179 18.4303 2.64064 13.9993C0.113018 17.7618 -0.354892 22.8525 1.77527 27.2199C4.95816 33.7458 12.8287 36.4559 19.3546 33.273C25.8805 30.0901 28.5905 22.2196 25.4076 15.6937C20.725 6.09311 10.9024 8.44606 6.94025 0.322471L6.94025 0.322471ZM18.4067 28.6953C16.321 30.4453 13.2114 30.1734 11.4611 28.0876C9.71106 26.0019 9.98299 22.8922 12.0688 21.142C17.1043 16.9168 16.2504 13.3427 16.2504 13.3427C16.2504 13.3427 24.701 23.4136 18.4067 28.6953Z" fill="url(#paint0_linear_907_23027)"/>
<defs>
<linearGradient id="paint0_linear_907_23027" x1="3.98624" y1="1.76324" x2="19.3546" y2="33.273" gradientUnits="userSpaceOnUse">
<stop stop-color="#FF1A1A"/>
<stop offset="1" stop-color="#FFA552"/>
</linearGradient>
</defs>
</svg>
