<svg width="18" height="18" viewBox="0 0 18 18" fill="none" xmlns="http://www.w3.org/2000/svg">
<path fill-rule="evenodd" clip-rule="evenodd" d="M2.54275 10.9724C2.83246 11.0974 3.14796 11.2094 3.48119 11.3094C4.06217 11.4837 4.725 11.6295 5.44797 11.7415C5.60733 12.8053 5.85806 13.7712 6.18232 14.5818C6.27825 14.8217 6.38219 15.0519 6.49432 15.2696C4.6075 14.5149 3.14089 12.9331 2.54275 10.9724ZM9 17.25C4.44365 17.25 0.75 13.5563 0.75 9C0.75 4.44365 4.44365 0.75 9 0.75C13.5563 0.75 17.25 4.44365 17.25 9C17.25 13.5563 13.5563 17.25 9 17.25ZM15.4573 10.9724C14.8591 12.9331 13.3925 14.5149 11.5057 15.2696C11.6178 15.0519 11.7218 14.8217 11.8177 14.5818C12.1419 13.7712 12.3927 12.8053 12.552 11.7415C13.275 11.6295 13.9378 11.4837 14.5188 11.3094C14.852 11.2094 15.1675 11.0974 15.4573 10.9724ZM15.4573 7.02756C14.8591 5.06694 13.3925 3.48512 11.5057 2.73037C11.6178 2.94812 11.7218 3.17835 11.8177 3.41816C12.1419 4.2288 12.3927 5.19473 12.552 6.25851C13.275 6.37055 13.9378 6.51635 14.5188 6.69064C14.852 6.79061 15.1675 6.90265 15.4573 7.02756ZM11.0027 6.07862C10.8601 5.28016 10.6621 4.56819 10.425 3.97524C10.1744 3.34892 9.89488 2.8924 9.62282 2.60472C9.35226 2.31862 9.14154 2.25 9 2.25C8.85846 2.25 8.64774 2.31862 8.37718 2.60472C8.10512 2.8924 7.82557 3.34892 7.57504 3.97524C7.33786 4.56819 7.13987 5.28016 6.99735 6.07862C7.63912 6.02713 8.31049 6 9 6C9.68951 6 10.3609 6.02713 11.0027 6.07862ZM6.8043 7.60122C7.49281 7.53581 8.23042 7.5 9 7.5C9.76958 7.5 10.5072 7.53581 11.1957 7.60122C11.2312 8.05174 11.25 8.51941 11.25 9C11.25 9.48059 11.2312 9.94826 11.1957 10.3988C10.5072 10.4642 9.76958 10.5 9 10.5C8.23042 10.5 7.49281 10.4642 6.8043 10.3988C6.76881 9.94826 6.75 9.48059 6.75 9C6.75 8.51941 6.7688 8.05174 6.8043 7.60122ZM5.28633 7.80618C4.78068 7.89697 4.31925 8.00527 3.91221 8.12738C3.27259 8.31926 2.80962 8.53286 2.52329 8.73594C2.32633 8.87564 2.26971 8.96688 2.25436 9C2.26971 9.03312 2.32633 9.12436 2.52329 9.26406C2.80962 9.46715 3.27259 9.68074 3.91221 9.87262C4.31925 9.99473 4.78069 10.103 5.28633 10.1938C5.26235 9.80341 5.25 9.40471 5.25 9C5.25 8.59529 5.26235 8.19659 5.28633 7.80618ZM5.44797 6.25851C5.60733 5.19473 5.85806 4.2288 6.18232 3.41816C6.27825 3.17835 6.38219 2.94812 6.49432 2.73037C4.6075 3.48512 3.14089 5.06694 2.54275 7.02756C2.83246 6.90265 3.14796 6.79061 3.48119 6.69064C4.06217 6.51635 4.725 6.37055 5.44797 6.25851ZM6.99735 11.9214C7.13988 12.7198 7.33786 13.4318 7.57504 14.0248C7.82557 14.6511 8.10512 15.1076 8.37718 15.3953C8.64774 15.6814 8.85846 15.75 9 15.75C9.14154 15.75 9.35226 15.6814 9.62282 15.3953C9.89488 15.1076 10.1744 14.6511 10.425 14.0248C10.6621 13.4318 10.8601 12.7198 11.0026 11.9214C10.3609 11.9729 9.68951 12 9 12C8.31049 12 7.63912 11.9729 6.99735 11.9214ZM12.7137 10.1938C12.7377 9.80341 12.75 9.40471 12.75 9C12.75 8.59529 12.7377 8.19659 12.7137 7.80618C13.2193 7.89697 13.6808 8.00527 14.0878 8.12738C14.7274 8.31926 15.1904 8.53286 15.4767 8.73594C15.6737 8.87564 15.7303 8.96688 15.7456 9C15.7303 9.03312 15.6737 9.12436 15.4767 9.26406C15.1904 9.46715 14.7274 9.68074 14.0878 9.87262C13.6808 9.99473 13.2193 10.103 12.7137 10.1938Z" fill="#949BA9"/>
</svg>
