<svg width="41" height="41" viewBox="0 0 41 41" fill="none" xmlns="http://www.w3.org/2000/svg">
<path d="M27.554 24.688C26.7272 23.8612 25.3866 23.8611 24.5598 24.688L11.8618 37.386C11.035 38.2128 11.035 39.5534 11.8619 40.3802C12.2753 40.7936 12.8171 41.0003 13.359 41.0003C13.9008 41.0003 14.4426 40.7936 14.8561 40.3802L27.554 27.6822C28.3809 26.8554 28.3809 25.5148 27.554 24.688Z" fill="url(#paint0_linear_907_29932)"/>
<path d="M27.554 24.688C26.7272 23.8612 25.3866 23.8611 24.5598 24.688L11.8618 37.386C11.035 38.2128 11.035 39.5534 11.8619 40.3802C12.2753 40.7936 12.8171 41.0003 13.359 41.0003C13.9008 41.0003 14.4426 40.7936 14.8561 40.3802L27.554 27.6822C28.3809 26.8554 28.3809 25.5148 27.554 24.688Z" fill="url(#paint1_linear_907_29932)"/>
<path d="M21.9331 19.0669C21.1064 18.2401 19.7657 18.2401 18.9389 19.0669L6.24097 31.7648C5.41414 32.5918 5.41414 33.9323 6.24097 34.7591C6.65435 35.1726 7.19619 35.3793 7.73804 35.3793C8.27988 35.3793 8.82172 35.1725 9.23518 34.7591L21.9331 22.0612C22.76 21.2343 22.76 19.8937 21.9331 19.0669Z" fill="url(#paint2_linear_907_29932)"/>
<path d="M21.9331 19.0669C21.1064 18.2401 19.7657 18.2401 18.9389 19.0669L6.24097 31.7648C5.41414 32.5918 5.41414 33.9323 6.24097 34.7591C6.65435 35.1726 7.19619 35.3793 7.73804 35.3793C8.27988 35.3793 8.82172 35.1725 9.23518 34.7591L21.9331 22.0612C22.76 21.2343 22.76 19.8937 21.9331 19.0669Z" fill="url(#paint3_linear_907_29932)"/>
<path d="M16.3124 13.4463C15.4855 12.6195 14.1449 12.6195 13.3182 13.4463L0.620135 26.1442C-0.206698 26.971 -0.206698 28.3116 0.620055 29.1384C1.03351 29.5519 1.57527 29.7586 2.1172 29.7586C2.65904 29.7586 3.20096 29.5518 3.61426 29.1385L16.3123 16.4406C17.1392 15.6137 17.1392 14.2731 16.3124 13.4463Z" fill="url(#paint4_linear_907_29932)"/>
<path d="M16.3124 13.4463C15.4855 12.6195 14.1449 12.6195 13.3182 13.4463L0.620135 26.1442C-0.206698 26.971 -0.206698 28.3116 0.620055 29.1384C1.03351 29.5519 1.57527 29.7586 2.1172 29.7586C2.65904 29.7586 3.20096 29.5518 3.61426 29.1385L16.3123 16.4406C17.1392 15.6137 17.1392 14.2731 16.3124 13.4463Z" fill="url(#paint5_linear_907_29932)"/>
<path d="M12.1615 18.3297V29.6585C12.1615 30.4596 13.1302 30.861 13.6967 30.2944L30.5572 14.0365V6.57666L12.1615 18.3297Z" fill="url(#paint6_linear_907_29932)"/>
<path d="M12.1615 18.3297V29.6585C12.1615 30.4596 13.1302 30.861 13.6967 30.2944L30.5572 14.0365V6.57666L12.1615 18.3297Z" fill="url(#paint7_linear_907_29932)"/>
<path d="M12.1615 18.3297V18.6557L18.8403 25.3346L30.5572 14.0365V6.57666L12.1615 18.3297Z" fill="url(#paint8_linear_907_29932)"/>
<path d="M38.8707 0.0593907L0.805799 10.2591C-0.132217 10.5105 -0.29461 11.7723 0.549187 12.253L11.1371 18.298C12.0354 18.8109 13.1385 18.8082 14.0343 18.291L27.9283 10.2678C29.4249 9.40361 30.9339 11.3715 29.711 12.5926L19.1025 23.1861C18.3802 23.9074 18.2728 25.0403 18.8465 25.8846L28.7471 40.4509C29.2278 41.2948 30.4896 41.1324 30.7409 40.1943L40.9407 2.12941C41.2775 0.872638 40.1275 -0.277372 38.8707 0.0593907Z" fill="url(#paint9_linear_907_29932)"/>
<path d="M22.6439 22.0872C22.0863 21.2669 22.1739 20.1751 22.8419 19.4521L19.1024 23.1863C18.3801 23.9076 18.2727 25.0404 18.8465 25.8847L28.747 40.4511C29.2277 41.295 30.4895 41.1326 30.7408 40.1945L31.9313 35.7515L22.6439 22.0872Z" fill="url(#paint10_linear_907_29932)"/>
<path d="M27.4372 14.8578L31.1485 11.1517C32.7337 9.56881 30.7776 7.01789 28.8376 8.13815L17.8318 14.4936C16.936 15.0109 15.8328 15.0135 14.9345 14.5006L5.3656 9.03742L0.805676 10.2593C-0.132339 10.5107 -0.294732 11.7724 0.549065 12.2531L11.137 18.2982C12.0353 18.8111 13.1384 18.8084 14.0342 18.2911L25.0401 11.9358C26.9432 10.8368 28.8613 13.2705 27.4372 14.8578Z" fill="url(#paint11_linear_907_29932)"/>
<defs>
<linearGradient id="paint0_linear_907_29932" x1="1.92325" y1="32.5341" x2="24.3208" y2="32.5341" gradientUnits="userSpaceOnUse">
<stop stop-color="#76CCF8"/>
<stop offset="0.833" stop-color="#518EF8"/>
<stop offset="1" stop-color="#4981F8"/>
</linearGradient>
<linearGradient id="paint1_linear_907_29932" x1="18.6812" y1="33.2245" x2="21.7897" y2="31.1343" gradientUnits="userSpaceOnUse">
<stop stop-color="#4071F7" stop-opacity="0"/>
<stop offset="1" stop-color="#30569F"/>
</linearGradient>
<linearGradient id="paint2_linear_907_29932" x1="1.92319" y1="26.913" x2="24.3207" y2="26.913" gradientUnits="userSpaceOnUse">
<stop stop-color="#76CCF8"/>
<stop offset="0.833" stop-color="#518EF8"/>
<stop offset="1" stop-color="#4981F8"/>
</linearGradient>
<linearGradient id="paint3_linear_907_29932" x1="9.48625" y1="26.913" x2="13.7742" y2="26.913" gradientUnits="userSpaceOnUse">
<stop stop-color="#4071F7" stop-opacity="0"/>
<stop offset="1" stop-color="#30569F"/>
</linearGradient>
<linearGradient id="paint4_linear_907_29932" x1="1.92321" y1="21.2923" x2="24.3207" y2="21.2923" gradientUnits="userSpaceOnUse">
<stop stop-color="#76CCF8"/>
<stop offset="0.833" stop-color="#518EF8"/>
<stop offset="1" stop-color="#4981F8"/>
</linearGradient>
<linearGradient id="paint5_linear_907_29932" x1="7.72519" y1="22.1363" x2="11.584" y2="17.7415" gradientUnits="userSpaceOnUse">
<stop stop-color="#4071F7" stop-opacity="0"/>
<stop offset="1" stop-color="#30569F"/>
</linearGradient>
<linearGradient id="paint6_linear_907_29932" x1="21.1023" y1="18.0585" x2="23.0129" y2="19.9176" gradientUnits="userSpaceOnUse">
<stop stop-color="#EEF4FF"/>
<stop offset="1" stop-color="#CFE7FD"/>
</linearGradient>
<linearGradient id="paint7_linear_907_29932" x1="17.7702" y1="14.716" x2="24.0867" y2="21.0325" gradientUnits="userSpaceOnUse">
<stop stop-color="#8AAADC" stop-opacity="0"/>
<stop offset="1" stop-color="#8AAADC"/>
</linearGradient>
<linearGradient id="paint8_linear_907_29932" x1="25.0521" y1="18.507" x2="21.781" y2="13.2888" gradientUnits="userSpaceOnUse">
<stop stop-color="#8AAADC" stop-opacity="0"/>
<stop offset="1" stop-color="#8AAADC"/>
</linearGradient>
<linearGradient id="paint9_linear_907_29932" x1="12.2428" y1="-1.87975" x2="39.9321" y2="25.8096" gradientUnits="userSpaceOnUse">
<stop stop-color="#EEF4FF"/>
<stop offset="1" stop-color="#CFE7FD"/>
</linearGradient>
<linearGradient id="paint10_linear_907_29932" x1="26.047" y1="30.5245" x2="22.6008" y2="33.0846" gradientUnits="userSpaceOnUse">
<stop stop-color="#8AAADC" stop-opacity="0"/>
<stop offset="1" stop-color="#8AAADC"/>
</linearGradient>
<linearGradient id="paint11_linear_907_29932" x1="12.8428" y1="16.1307" x2="10.9119" y2="19.6321" gradientUnits="userSpaceOnUse">
<stop stop-color="#8AAADC" stop-opacity="0"/>
<stop offset="1" stop-color="#8AAADC"/>
</linearGradient>
</defs>
</svg>
